# xmcd
#
# Track frame offsets:
#	150
#	16886
#	30776
#	43836
#	55664
#	72606
#	86257
#	99761
#	110914
#	125922
#	140574
#	157188
#
# Disc length: 2261 seconds
#
# Revision: 1
# Processed by: cddbd v1.5.2PL0 Copyright (c) Steve Scherf et al.
# Submitted via: audiograbber 1.83.01
#
DISCID=a108d30c
DTITLE=Kent Gray - The whole kid and kaboodle
DYEAR=1900
DGENRE=One in a million
TTITLE0=One in a million
TTITLE1=You don't want to see her angry
TTITLE2=Somewhere in Texas tonight
TTITLE3=I got a thing or two to do before I go
TTITLE4=Your confusion
TTITLE5=One shot a time
TTITLE6=She parties like a rock star
TTITLE7=The night we fell in love
TTITLE8=Hank Williams Jack Daniels and memories of you
TTITLE9=Lose your religion
TTITLE10=That's what daddies do
TTITLE11=Shadow of the cross
EXTD=
EXTT0=
EXTT1=
EXTT2=
EXTT3=
EXTT4=
EXTT5=
EXTT6=
EXTT7=
EXTT8=
EXTT9=
EXTT10=
EXTT11=
PLAYORDER=
